<?xml version="1.0" encoding="UTF-8"?>
<!DOCTYPE svg PUBLIC "-//W3C//DTD SVG 1.1//EN" "http://www.w3.org/Graphics/SVG/1.1/DTD/svg11.dtd">
<!-- Creator: CorelDRAW -->
<svg xmlns="http://www.w3.org/2000/svg" xml:space="preserve" width="0.275988in" height="0.275988in" version="1.1" style="shape-rendering:geometricPrecision; text-rendering:geometricPrecision; image-rendering:optimizeQuality; fill-rule:evenodd; clip-rule:evenodd"
viewBox="0 0 11.75 11.75"
 xmlns:xlink="http://www.w3.org/1999/xlink"
 xmlns:xodm="http://www.corel.com/coreldraw/odm/2003">
 <defs>
  <style type="text/css">
   <![CDATA[
    .str0 {stroke:#7A75B5;stroke-width:0.3;stroke-miterlimit:2.61313}
    .fil1 {fill:none}
    .fil0 {fill:#91D8F7}
    .fil2 {fill:#7A75B5}
   ]]>
  </style>
 </defs>
 <g id="Layer_x0020_1">
  <metadata id="CorelCorpID_0Corel-Layer"/>
  <g id="_2511967782096">
   <circle class="fil0" cx="5.87" cy="5.87" r="5.87"/>
   <path class="fil1 str0" d="M6.42 4.37c0.85,0.1 0.85,0.5 0.85,0.9"/>
   <path class="fil2" d="M4.81 4.65c-0.67,1.31 0.67,2.36 1.94,2.68 0.04,-0.36 0.23,-0.7 0.85,-0.62 0.47,0.13 0.75,0.39 0.97,0.69 0.49,0.69 0.23,1.35 -0.66,1.34 -1.83,-0.37 -3.54,-1.52 -4.86,-4.33 -0.34,-1.02 0.16,-1.55 1,-1.37 0.45,0.19 0.79,0.58 1.05,1.15 0.04,0.37 -0.2,0.29 -0.28,0.45z"/>
   <path class="fil1 str0" d="M6.1 3.78c1.62,-0.09 2.02,1.03 1.76,1.77"/>
   <path class="fil1 str0" d="M5.84 3.07c2.55,-0.14 3.19,1.63 2.79,2.79"/>
  </g>
 </g>
</svg>
