<?xml version="1.0" encoding="UTF-8"?>
<!DOCTYPE svg PUBLIC "-//W3C//DTD SVG 1.1//EN" "http://www.w3.org/Graphics/SVG/1.1/DTD/svg11.dtd">
<!-- Creator: CorelDRAW -->
<svg xmlns="http://www.w3.org/2000/svg" xml:space="preserve" width="0.180421in" height="0.136913in" version="1.1" style="shape-rendering:geometricPrecision; text-rendering:geometricPrecision; image-rendering:optimizeQuality; fill-rule:evenodd; clip-rule:evenodd"
viewBox="0 0 11.59 8.8"
 xmlns:xlink="http://www.w3.org/1999/xlink"
 xmlns:xodm="http://www.corel.com/coreldraw/odm/2003">
 <defs>
  <style type="text/css">
   <![CDATA[
    .fil0 {fill:#52658C;fill-rule:nonzero}
   ]]>
  </style>
 </defs>
 <g id="Layer_x0020_1">
  <metadata id="CorelCorpID_0Corel-Layer"/>
  <g id="_2611920164672">
   <g>
    <path class="fil0" d="M0.45 0.89c-0.25,0 -0.45,-0.2 -0.45,-0.44 0,-0.24 0.2,-0.44 0.45,-0.44l0 0.89zm10.7 0l-10.7 0 0 -0.89 10.7 0 0 0.89zm0 -0.89c0.25,0 0.45,0.2 0.45,0.44 0,0.24 -0.2,0.44 -0.45,0.44l0 -0.89z"/>
   </g>
   <g>
    <path class="fil0" d="M0.45 4.84c-0.25,0 -0.45,-0.2 -0.45,-0.44 0,-0.24 0.2,-0.44 0.45,-0.44l0 0.89zm10.7 0l-10.7 0 0 -0.89 10.7 0 0 0.89zm0 -0.89c0.25,0 0.45,0.2 0.45,0.44 0,0.24 -0.2,0.44 -0.45,0.44l0 -0.89z"/>
   </g>
   <g>
    <path class="fil0" d="M0.45 8.8c-0.25,0 -0.45,-0.2 -0.45,-0.44 0,-0.24 0.2,-0.44 0.45,-0.44l0 0.89zm10.7 0l-10.7 0 0 -0.89 10.7 0 0 0.89zm0 -0.89c0.25,0 0.45,0.2 0.45,0.44 0,0.24 -0.2,0.44 -0.45,0.44l0 -0.89z"/>
   </g>
  </g>
 </g>
</svg>
