<?xml version="1.0" encoding="UTF-8"?>
<!DOCTYPE svg PUBLIC "-//W3C//DTD SVG 1.1//EN" "http://www.w3.org/Graphics/SVG/1.1/DTD/svg11.dtd">
<!-- Creator: CorelDRAW -->
<svg xmlns="http://www.w3.org/2000/svg" xml:space="preserve" width="0.130346in" height="0.130346in" version="1.1" style="shape-rendering:geometricPrecision; text-rendering:geometricPrecision; image-rendering:optimizeQuality; fill-rule:evenodd; clip-rule:evenodd"
viewBox="0 0 2.6 2.6"
 xmlns:xlink="http://www.w3.org/1999/xlink"
 xmlns:xodm="http://www.corel.com/coreldraw/odm/2003">
 <defs>
  <style type="text/css">
   <![CDATA[
    .fil0 {fill:#585570}
    .fil1 {fill:#FEFEFE;fill-rule:nonzero}
   ]]>
  </style>
 </defs>
 <g id="Layer_x0020_1">
  <metadata id="CorelCorpID_0Corel-Layer"/>
  <g id="_2077984199984">
   <polygon class="fil0" points="1.3,0 1.46,0.21 1.7,0.06 1.79,0.31 2.06,0.25 2.07,0.51 2.35,0.54 2.28,0.79 2.54,0.9 2.39,1.12 2.6,1.3 2.39,1.46 2.54,1.7 2.29,1.79 2.35,2.06 2.09,2.07 2.06,2.35 1.81,2.28 1.7,2.54 1.48,2.39 1.3,2.6 1.14,2.39 0.9,2.54 0.81,2.29 0.54,2.35 0.53,2.09 0.25,2.06 0.32,1.81 0.06,1.7 0.21,1.48 -0,1.3 0.21,1.14 0.06,0.9 0.31,0.81 0.25,0.54 0.51,0.53 0.54,0.25 0.79,0.32 0.9,0.06 1.12,0.21 "/>
   <path class="fil1" d="M1.87 1.14l-0.79 0.78c-0.15,-0.15 -0.29,-0.29 -0.44,-0.44 -0.33,-0.27 -0.02,-0.55 0.15,-0.38l0.29 0.29c0.26,-0.26 0.33,-0.33 0.6,-0.59 0.26,-0.28 0.67,-0.07 0.19,0.33z"/>
  </g>
 </g>
</svg>
